<?xml version="1.0" encoding="utf-8"?>
<!-- Generator: Adobe Illustrator 27.1.1, SVG Export Plug-In . SVG Version: 6.00 Build 0)  -->
<svg version="1.1" id="Capa_2_00000125567223083461129390000004431749936002427776_"
	 xmlns="http://www.w3.org/2000/svg" xmlns:xlink="http://www.w3.org/1999/xlink" x="0px" y="0px" viewBox="0 0 1774.7 650.4"
	 style="enable-background:new 0 0 1774.7 650.4;" xml:space="preserve">
<style type="text/css">
	.st0{fill:#593257;}
	.st1{fill:#D8A0D9;}
</style>
<g>
	<path class="st0" d="M1512.7,549c0,15.2,0,28.8,0,42.5c0,17.7-0.1,35.3,0.1,53c0.1,3.8-1,4.8-4.7,4.7c-7.7-0.3-7.8,0-7.8-8
		c0-36.3,0-72.6,0.1-109c0-2-1.5-5.6,1.5-5.8c3.6-0.3,7.8-2,11,2.2c14.7,19,29.6,37.8,44.4,56.6c10.2,13,20.4,25.9,30.6,38.9
		c0.8,1,1.7,1.9,2.6,3c1.2-1.8,0.7-3.4,0.7-5c0-30.3,0.1-60.7-0.1-91c0-4.2,1-5.8,5.2-5.1c1.5,0.2,3,0.1,4.5,0
		c1.9-0.1,2.8,0.5,2.6,2.5c-0.1,1.2,0,2.3,0,3.5c0,36.8,0,73.6-0.1,110.5c0,2.1,1.8,6-1.6,6.2c-3.9,0.3-8.5,2.3-11.9-2.2
		c-9.7-12.5-19.6-24.9-29.4-37.3c-14.8-18.8-29.7-37.7-44.5-56.5C1515.2,551.9,1514.4,551.1,1512.7,549L1512.7,549z"/>
	<path class="st0" d="M133.4,587.7c0-19.1,0.1-38.3-0.1-57.4c0-3.1,0.7-4.3,4.1-4.2c13.6,0.2,27.3-0.3,40.9,0.2
		c22.1,0.8,39.8,9.5,49.3,30.5c3.3,7.4,5.3,15.2,5.9,23.7c0.7,11.6-0.2,22.6-4.1,33.6c-6,16.8-17.8,27.2-34.4,32.5
		c-5.6,1.8-11.5,2.7-17.4,2.6c-13-0.1-26-0.3-38.9,0.1c-4.7,0.1-5.4-1.4-5.3-5.6C133.6,625,133.5,606.3,133.4,587.7L133.4,587.7z
		 M145.8,587.4c0,15.7,0.1,31.3-0.1,47c0,3,0.8,4,3.9,4c9.6-0.2,19.3,0.1,29-0.3c18.5-0.7,31.8-9.7,38.7-26.8
		c6.6-16.4,6.1-33.3-0.8-49.5c-5.1-11.8-14.2-19.5-27.2-22.7c-13-3.2-26.1-1.2-39.1-2c-3.6-0.2-4.4,1.2-4.3,4.5
		C145.9,556.7,145.8,572,145.8,587.4L145.8,587.4z"/>
	<path class="st0" d="M1292.2,631.6c-8.1,8.7-16.5,14.5-26.8,17.1c-12.8,3.1-25.2,2-36.8-4.5c-17.3-9.7-27.3-24.6-31.9-43.6
		c-6.4-26.4,7.3-56.7,29.8-69c11-6,22.5-6.9,34.9-5.8c15.9,1.5,26.9,9.3,35.7,21.7c2.4,3.4,1.6,4.9-1.6,7.3
		c-4.4,3.3-6.1,2.6-9.2-1.9c-9.3-13.4-22.9-18.7-38.8-15.8c-23,4.2-35.1,18.1-39.3,42.1c-2.5,14.5,1.1,27.4,8.9,39
		c16.2,24,44.4,27.6,67.2,8.8c9.8-8.1,7.7-17.7,7.9-27.5c0-2.4-2.2-1.5-3.5-1.5c-7-0.1-14-0.3-21,0c-3.7,0.2-3.7-1.8-3.4-4.2
		c0.3-2.2-1.6-5.6,3.3-5.5c10.5,0.2,21,0.1,31.5,0c2.8,0,3.8,0.9,3.7,3.8c-0.1,17.8-0.1,35.7,0.1,53.5c0,5.6-4.1,2.8-6.4,3.3
		c-2.4,0.5-4.6,0.4-4.3-3.3C1292.5,641.4,1292.2,637.1,1292.2,631.6L1292.2,631.6z"/>
	<path class="st0" d="M430.4,587.7c0-19.2,0.1-38.3-0.1-57.4c0-3.1,0.6-4.3,4.1-4.2c24.3,0.2,48.6,0.2,72.9,0c4.8,0,3.9,2.6,3.9,5.3
		c-0.1,2.7,1.2,5.8-4,5.8c-19.8-0.3-39.6,0-59.5-0.2c-3.7,0-5.2,0.6-5.1,4.8c0.3,11.5,0.3,23,0,34.5c-0.1,4.2,1.4,4.9,5.1,4.9
		c16.6-0.2,33.3,0.1,50-0.2c4.5-0.1,4.5,1.9,4.5,5.2c0,3.4-0.1,5.3-4.6,5.2c-16.5-0.3-33,0.1-49.5-0.3c-4.8-0.1-5.7,1.5-5.6,5.8
		c0.3,11.8,0.4,23.7-0.1,35.5c-0.2,5.3,1.6,6.2,6.4,6.1c19.8-0.3,39.6,0.1,59.5-0.2c4.7-0.1,4.9,1.9,4.9,5.5c0,3.5,0.1,5.6-4.8,5.6
		c-24.5-0.3-49-0.2-73.4,0c-4.1,0-4.9-1.2-4.8-5C430.5,625.4,430.4,606.5,430.4,587.7L430.4,587.7z"/>
	<path class="st0" d="M704.8,622.3c7.8,7.3,16.8,12.2,26.9,14.8c12.3,3.1,24.5,3.4,36.4-1.6c7-3,10.9-8.5,11.2-16.3
		c0.3-8-2.8-14.1-10-18c-9.2-4.9-19.5-6.4-29.5-9c-5.6-1.5-11-3.2-16.4-5.2c-10.2-3.6-18.6-9.3-20.1-21c-1.8-14.7,2.6-27,16.1-34.6
		c10.8-6,22.4-7.2,34.8-5.7c9.8,1.2,18.7,3.5,26.7,9.1c1.9,1.4,5.5,2.5,4.9,4.9c-0.7,3-2.8,5.9-5.2,8.4c-1.3,1.4-1.4-0.2-2-0.7
		c-12-11.2-36.1-15.1-50.8-8.2c-8.2,3.9-12.5,10.8-12.6,19.7c0,8.6,5.2,13.9,12.9,16.9c11.7,4.6,24.1,6.7,36.2,10.1
		c5.6,1.6,10.9,3.7,15.9,6.7c12.2,7.4,13.8,22.3,10.6,34c-3.3,12-12.3,18.4-23.5,21.1c-22.7,5.4-44.3,2.5-63.9-11.3
		c-4-2.8-5.7-5.2-1.9-9.3C702.8,625.9,703.6,624.1,704.8,622.3L704.8,622.3z"/>
	<path class="st0" d="M986.4,587.4c0-18.8,0.1-37.6-0.1-56.4c0-3.8,0.7-5.7,4.8-4.9c1,0.2,2,0.2,3,0c3.7-0.6,4.8,0.7,4.7,4.6
		c-0.2,20.1-0.1,40.2-0.1,60.4c0,17.8-0.1,35.6,0.1,53.4c0,3.6-0.7,5.4-4.6,4.7c-1-0.2-2-0.2-3,0c-3.8,0.6-5-0.8-5-4.8
		C986.5,625.3,986.4,606.4,986.4,587.4L986.4,587.4z"/>
</g>
<g>
	<path class="st1" d="M924.6,287c-2.4,10.3-4.8,20.6-7.3,30.8c-6.7,27.6-14.9,54.8-26.8,80.8c-7.9,17.3-17.6,33.4-30.6,47.6
		c-30.2,32.9-79.5,22.1-100.8-9.2c-11.6-17-16.8-36-17.9-56.2c-1-18.8,1.6-36.8,11-53.5c8.6-15.3,21.1-26.9,35-37.1
		c18.7-13.7,39.1-24.6,59-36.5c25.7-15.5,50.3-32.5,71.2-54.3c1.7-1.8,3.2-3.8,4.9-5.6c6.1-6.7,6.5-8.6,1.4-16.4
		c-9.2-14.2-22.9-21.8-39.2-25.1c-23-4.6-39.5,7.2-50.1,26.6c-6.3,11.5-10.1,23.8-13.2,36.4c-3.4,13.6-9.8,25.1-23.1,31.4
		c-19.4,9.2-38.4-2.5-38.8-24c-0.3-15.8,6-29.2,15.9-40.9c18.8-22.3,43.8-33.1,71.8-38.7c15.8-3.2,31.8-3.3,47.7-2.6
		c12.4,0.6,24.8,2.5,36.6,6.7c20.7,7.4,31.3,23,36,43.6c4.4,19.2,2.3,38.8,3.2,58.1c1,21.4,1.9,42.8,3.4,64.1
		c1.2,16.4,2.5,32.8,4.4,49.1c3.2,27.9,7.2,55.6,15.4,82.5c1.7,5.4,3.7,10.7,6.4,15.7c1.6,3,2.8,3.3,4.5,0
		c3.8-7.5,6.3-15.4,8.4-23.4c7.1-26.5,11.4-53.5,15.3-80.6c3.5-24.6,6-49.4,8.7-74.1c1.5-14,2.1-28.1,3.2-42.2
		c2.2-27.7,3.3-55.4,4.3-83.1c0.7-20.8,1-41.6,0.4-62.4c-0.7-21.8-1.4-43.8-6.7-65.2c-1.4-5.7-2.9-11.3-7.6-15.4
		c-0.8-0.8-1.8-1.7-1.1-3c0.6-1.1,1.7-0.8,2.7-0.8c20,0,40,0,60,0c2.9,0,3.6,1.4,2.5,3.8c-4.9,10.7-4.7,22.3-5.5,33.7
		c-3,41.4-2.2,82.8-1.8,124.3c0.2,23.1,1.1,46.2,2,69.3c0.7,19.1,1.6,38.2,3,57.2c1.7,22.3,3.2,44.7,5.6,66.9
		c2.4,22.1,4.8,44.2,9.3,66c2.2,10.7,4.2,21.5,10.1,31.1c1.4,2.3,1,3.8-2.1,3.7c-1,0-2,0-3,0c-73.3,0-146.6,0-219.9,0
		c-6.7,0-6.6,0-3.7-5.7c8.8-17.2,13.7-35.6,18.2-54.2c6.5-26.9,11.2-54.2,14.6-81.7c1.2-9.9,2.6-19.7,3.7-29.6c0.3-2.5,0-5.1,0-7.7
		C924.9,287.1,924.7,287.1,924.6,287L924.6,287z M928.4,204.7c-2.4,0.8-2.8,2.6-3.7,3.9c-7,9.6-14.5,18.6-23.2,26.6
		c-21.2,19.6-44.9,35.9-68.8,51.9c-21.5,14.4-35.8,34.2-41.9,59.2c-4.7,19.1-4.6,38.2,4.8,56.4c8.1,15.7,24,23.6,39.2,19.2
		c10.8-3.1,18.8-10.4,25.6-19c17.2-21.9,27.6-47.3,36.8-73.2c11.2-31.2,19.2-63.2,25.9-95.6C925,224.5,926.6,214.8,928.4,204.7
		L928.4,204.7z M925.6,284.4c0.8-1.1,0.7-2.2,0-3.5C925.1,282.3,925,283.3,925.6,284.4z"/>
	<path class="st1" d="M59.2,235.5C58.7,273,61.8,307.3,70.3,341c6,23.9,14.8,46.6,29.7,66.5c14.8,19.8,33.2,34.3,58.2,39.1
		c14.5,2.8,27.9,0,40.1-7.7c35-22.4,60.2-52.9,74.6-92c1.7-4.7,2.2-9.7,4.4-14.3c2.4-5,4.7-5.6,8.8-2.2c14.6,12.3,29.2,24.6,43.8,37
		c2.9,2.5,3.9,5.4,0.5,7.9c-11.5,8.6-18.6,21.2-28.6,31.2c-10.5,10.5-21.3,20.6-33.2,29.3c-22,16.1-46,28.2-73.2,32.5
		c-25.2,4-50.3,2.9-75.1-3.7C80,454,50.8,429.5,31.2,393c-14-26.1-21.4-54.3-26-83.3c-5-31.3-6.1-62.9-4.7-94.5
		c1.9-42.2,10.7-83,30.6-120.7C49.7,59.6,75.6,32,111.8,15.1c20.1-9.4,41.2-14.5,63.5-15c28.6-0.6,56.8,1.5,84,11.1
		c21.4,7.5,40.2,19,52.6,38.5c14.2,22.2,17.6,46.4,9.3,71.7c-6.6,20.2-27.2,27.8-43.9,23.9c-12.6-2.9-18.8-12.5-23.1-23.6
		c-3.8-9.9-5-20.2-5.3-30.8c-0.3-14-2.6-27.7-10.3-40c-9.8-15.6-24.5-23.4-42.1-26.6c-27.2-5-50.4,3.1-70.7,21.5
		c-13,11.8-23.4,25.4-32.1,40.4c-16,27.5-25.2,57.5-30.4,88.6C60,195.8,58.3,217,59.2,235.5L59.2,235.5z"/>
	<path class="st1" d="M1336.2,352.1c-0.5-17,0.1-32.4,1.1-47.9c1.4-20.4,3.2-40.6,6.5-60.8c3.2-20.1,7.6-39.8,14.4-58.9
		c4.8-13.4,11.2-26,21-36.5c9.3-10,20.8-15.6,34.6-16.9c14.7-1.3,28.6,0.5,41,8.9c16.6,11.2,24.3,27.7,25.2,47
		c0.9,18.7-0.2,37.5,0.4,56.2c0.8,24.1,1.6,48.1,3.5,72.1c1.5,18.5,3.1,37,5.3,55.5c3.2,25.9,7.1,51.6,14.9,76.6
		c1.5,4.8,3.5,9.3,5.9,13.7c2.2,4,1.6,5-2.9,5c-35.7,0-71.3,0-107,0c-3.1,0-5-0.3-3-4.1c12.7-24.3,18.3-50.9,23.9-77.3
		c5.9-27.4,9.7-55.2,12.8-83.1c1.6-14,2.5-28.1,3.5-42.2c1.2-16.4,2.1-32.9,1.6-49.3c-0.4-13.3-1.3-26.6-5.8-39.2
		c-2.9-8.2-7.4-15.4-16.1-18.6c-8.2-3.1-14.7,0.8-20.3,6.1c-9.9,9.2-16.2,21-21.5,33.3c-12.2,28-18.3,57.5-22.2,87.6
		c-2.2,16.8-3.3,33.7-4.2,50.6c-0.7,13.7-1,27.3-0.5,40.9c0.7,18.4,1.2,36.8,3.6,55.1c1,7.9,1.6,15.9,2.2,23.8
		c0.3,4.5,2.2,8.3,4.6,11.9c2.1,3.2,1.5,4.6-2.6,4.6c-36-0.1-72,0-108-0.1c-2.3,0-5.2,0.6-2.9-3.6c9.9-18.1,15-37.9,19.9-57.8
		c4.9-19.8,8.6-39.9,11.6-60.1c2.7-17.9,4.8-35.8,6.6-53.8c2.8-28.5,4.5-57,3.6-85.6c-0.4-14.4-1.5-28.9-5.1-42.9
		c-1.8-6.9-4.1-13.8-9.8-18.7c-0.7-0.6-1.8-1.3-1.4-2.4c0.5-1.4,2-0.9,3.1-0.9c20,0,40,0,60,0c2.9,0,4.3,1,2.9,3.9
		c-5.4,10.6-5.4,22.2-6.3,33.5c-2,25.9-1.7,51.9-1,77.9c0.7,24.4,2.2,48.8,4.1,73.1C1334,336,1333.2,343.6,1336.2,352.1
		L1336.2,352.1z"/>
	<path class="st1" d="M524,287.2c-3.9,15.6-7.4,31.3-11.7,46.8c-9,32.3-19.4,64-37.7,92.4c-10.3,15.9-22.5,30-40.9,36.6
		c-26.3,9.5-58.3-1.6-75.3-25.9c-11.8-16.9-17-35.9-18-56.2c-1-18.6,1.5-36.5,10.6-53.1c8.5-15.5,21.1-27.3,35.1-37.6
		c18.8-13.9,39.4-24.8,59.4-36.8c25.6-15.4,50-32.3,70.8-54c2-2,3.7-4.3,5.6-6.4c5.5-5.9,5.9-7.4,1.5-14.8
		c-8.9-15-22.9-22.8-39.5-26.2c-23.2-4.8-39.6,6.9-50.3,26.3c-5.7,10.4-9.7,21.5-12.4,33.1c-2.6,11-6.4,21.3-15.1,29.2
		c-9.1,8.4-23.3,11.5-32.7,6.9c-11.1-5.4-17.3-19.6-14.7-33.2c4.9-25.2,20.6-42.3,41.9-54.9c23.2-13.7,48.6-19.2,75.4-19.4
		c16.9-0.1,33.5,0.9,49.8,5.6c23,6.5,35.3,22.3,40.5,44.8c4.5,19.6,2.3,39.4,3.3,59.1c1.1,21,1.8,42.1,3.4,63.1
		c1,12.9,1.8,25.8,3.3,38.7c4.2,35.6,7.6,71.3,21,105.1c0.1,0.3,0.2,0.6,0.3,0.9c2.5,5.7,0.6,8.5-5.5,8.5c-34,0-68,0-102,0
		c-5.6,0-5.5,0-2.9-5c9.3-17.9,14.3-37.2,19-56.6c6.3-26.5,10.9-53.3,14.2-80.3C522,311.9,523.6,299.6,524,287.2L524,287.2z
		 M527.5,205.1c-8.8,10.8-17.2,21-27,30.1c-21.3,19.7-45.2,36.1-69.2,52.2c-19.8,13.3-33.4,31.3-40.2,54.1
		c-6.2,20.7-6.7,41.3,3.4,61.1c8.1,15.9,24.5,23.9,39.6,19.3c10.5-3.2,18.5-10.4,25.1-18.9c17.2-21.9,27.6-47.3,36.9-73.2
		c9.7-27.1,17.2-54.8,23.1-82.9C522.2,233,524.8,219,527.5,205.1L527.5,205.1z M525,281.1c-0.7,1.2-1.1,2.2,0,3.4V281.1z"/>
	<path class="st1" d="M1697.5,287.1c-2.4,10.3-4.8,20.6-7.3,30.8c-6.7,27.6-14.9,54.8-26.8,80.8c-7.9,17.3-17.6,33.4-30.6,47.6
		c-30.2,32.9-79.6,22-100.8-9.3c-9.8-14.5-15.2-30.5-17.1-47.8c-2.4-21.3-0.6-41.8,9.8-61c8.5-15.7,21.3-27.5,35.5-38
		c18.7-13.7,39.1-24.6,58.9-36.5c25.7-15.5,50.3-32.5,71.2-54.3c2.1-2.2,3.7-4.8,6-6.6c4.6-3.7,4.3-7.7,1.9-12.3
		c-7.6-14.7-20.4-22.6-35.5-26.9c-23.8-6.8-42.8,2.2-55.2,25c-5.7,10.4-9.7,21.5-12.4,33.1c-2.7,11.1-6.5,21.6-15.4,29.6
		c-9,8.2-23,11.2-32.3,6.7c-11.3-5.4-17.4-19.7-14.7-33.6c5-25.2,20.8-42.2,42.1-54.7c23.4-13.7,48.9-19.2,75.9-19.3
		c16.5-0.1,32.8,1,48.8,5.5c23,6.5,35.4,22.2,40.7,44.7c4.4,19.1,2.4,38.4,3.3,57.7c1,21.7,1.9,43.4,3.4,65.1
		c1.2,16.4,2.4,32.8,4.4,49.1c3.3,27.8,7.1,55.6,15.4,82.5c1.8,5.7,3.8,11.3,6.9,16.5c1.9,3.3,1.6,4.9-2.9,4.9
		c-35.7-0.1-71.3-0.1-107-0.1c-5.2,0-5.1-0.1-2.6-4.9c9.2-17.7,14.3-36.8,18.9-56.1c6.4-26.6,11.1-53.6,14.3-80.8
		c1.3-11.2,2.6-22.4,3.9-33.6c0.1-1.2,0-2.5,0-3.7C1698,287.1,1697.7,287.1,1697.5,287.1L1697.5,287.1z M1701.1,205.1
		c-8.6,10.8-16.9,21-26.6,29.9c-21.3,19.7-45.1,36.1-69.2,52.3c-21.6,14.5-35.7,34.2-41.8,59.3c-4.7,19.1-4.6,38.3,4.9,56.3
		c8.2,15.6,24.2,23.5,39.3,19c10.6-3.1,18.6-10.3,25.2-18.8c17.4-22,27.8-47.5,37.1-73.6c11.7-32.7,20-66.4,26.8-100.4
		C1698.5,221.2,1699.8,213.1,1701.1,205.1L1701.1,205.1z M1698.4,284.3c0.7-1.2,1.1-2.2,0-3.4V284.3z"/>
	<path class="st1" d="M623.2,354.3c-0.3-24.2,2.2-46,4-67.9c0.9-10.9,1.5-21.9,2.1-32.8c1.5-27.7,3.7-55.4,4.3-83.1
		c0.1-3.8,0.6-7.6,0.8-11.4c0.2-3.1-1-4.3-4-3.9c-13.5,1.5-27.2,1.1-40.7,3.4c-4,0.7-5.6-0.1-5.5-4.3c0.2-6.2,0.2-12.3,0.2-18.5
		c0-2.7,0.7-4,3.8-4.8c12.9-3.1,25.1-8,34.9-17.4c9.3-8.9,14.5-20.2,17.3-32.6c4.3-19.4,4.8-39.2,5.1-58.9c0-3-1.3-5.5-2.5-8
		c-1.3-2.8-0.5-4,2.6-4c11.8,0.1,23.7,0.1,35.5,0c3.1,0,3.9,1.5,3.1,4.1c-5.2,16.4-4.9,33.4-6,50.3c-1.4,21.6-0.5,43.3-1.1,64.9
		c-0.1,3.6,0.8,4.9,4.7,4.9c21.1-0.1,42.2-1,63.3-2.2c13.4-0.8,13.3-1.2,13.3,11.9c0,1.7,0,3.3,0,5c0,9.2,0,9.6-9.5,9
		c-22.1-1.4-44.1-2.5-66.2-3c-4.5-0.1-5.7,1.1-5.6,5.5c0.4,11.6,0,23.3,0.3,35c0.8,25.7,1.8,51.5,3,77.2c0.7,14.9,1.6,29.8,2.9,44.7
		c2.6,30.1,5.3,60.2,16.8,88.7c8.3,20.5,20.8,37.8,38.1,51.6c1.2,0.9,2.4,1.9,3.2,3.1c1.5,2.5,1.6,4.6-1.9,5.6
		c-29.2,7.8-66.7,4.3-90.2-22.1c-11.7-13.1-18.1-28.9-22-45.8C623.7,383.3,622.7,367.8,623.2,354.3L623.2,354.3z"/>
	<path class="st1" d="M1181.8,466.1c-17.7,0-35.3,0-53,0c-5.4,0-5.2,0-2.8-4.7c9.2-17.9,14.4-37.1,19.1-56.5
		c4.9-20,8.6-40.2,11.7-60.5c2.7-17.9,4.8-35.8,6.6-53.8c2.8-28.5,4.4-57,3.6-85.6c-0.4-14.4-1.6-28.9-5.1-42.9
		c-1.8-6.9-4.1-13.7-9.8-18.7c-0.7-0.6-1.8-1.3-1.3-2.4c0.5-1.1,1.8-0.7,2.7-0.7c20.2,0,40.3,0,60.5,0c3.1,0,4,1.3,2.6,4
		c-5.4,10.9-5.3,22.9-6.2,34.5c-1.9,26.1-1.7,52.2-1,78.3c0.7,23.5,2,47.1,3.9,70.6c2.9,35,6.5,70,14.9,104.2
		c2.5,10.3,5.2,20.6,10.8,29.9c2,3.3,0.9,4.3-2.7,4.3C1218.1,466.1,1200,466.1,1181.8,466.1L1181.8,466.1z"/>
	<path class="st1" d="M1231.3,48.9c-0.8,20.3-7.7,37.7-26.7,47.3c-22.1,11.2-57.9,1.7-61.6-33.6c-2-19.6,3.2-36.4,17.4-50.2
		c20.9-20.2,57.6-11.5,67.3,15.9C1230.1,35,1231.7,41.7,1231.3,48.9z"/>
	<path class="st1" d="M925.6,284.4c-0.6-1.1-0.5-2.1,0-3.5C926.3,282.2,926.4,283.3,925.6,284.4z"/>
</g>
</svg>
