<?xml version="1.0" encoding="UTF-8"?>
<svg id="Capa_2" data-name="Capa 2" xmlns="http://www.w3.org/2000/svg" viewBox="0 0 1774.67 650.38">
  <defs>
    <style>
      .cls-1 {
        fill: #fff;
      }
    </style>
  </defs>
  <g id="Capa_1-2" data-name="Capa 1">
    <g>
      <path class="cls-1" d="m924.59,287.05c-2.43,10.28-4.81,20.56-7.3,30.83-6.72,27.65-14.9,54.82-26.77,80.77-7.93,17.34-17.61,33.38-30.64,47.57-30.23,32.9-79.51,22.06-100.76-9.22-11.56-17.03-16.81-35.95-17.87-56.24-.98-18.77,1.64-36.84,10.98-53.49,8.57-15.27,21.08-26.87,35-37.1,18.68-13.73,39.14-24.59,58.95-36.49,25.74-15.46,50.31-32.47,71.19-54.3,1.72-1.8,3.21-3.81,4.89-5.65,6.13-6.68,6.45-8.58,1.39-16.4-9.22-14.25-22.91-21.84-39.16-25.11-23.04-4.63-39.53,7.25-50.12,26.63-6.27,11.47-10.12,23.81-13.25,36.45-3.36,13.58-9.76,25.1-23.09,31.44-19.39,9.22-38.37-2.48-38.77-24.04-.29-15.77,6.04-29.18,15.93-40.92,18.78-22.3,43.8-33.14,71.77-38.72,15.84-3.16,31.76-3.3,47.69-2.58,12.42.56,24.75,2.5,36.59,6.73,20.71,7.39,31.28,22.98,36.03,43.64,4.42,19.24,2.28,38.76,3.22,58.15,1.04,21.38,1.91,42.77,3.43,64.14,1.17,16.39,2.46,32.77,4.36,49.08,3.24,27.85,7.15,55.61,15.38,82.54,1.65,5.39,3.71,10.67,6.39,15.67,1.58,2.95,2.84,3.28,4.53-.04,3.8-7.46,6.3-15.39,8.44-23.41,7.07-26.48,11.41-53.48,15.31-80.58,3.54-24.63,6.03-49.37,8.69-74.09,1.51-14.02,2.14-28.13,3.24-42.19,2.17-27.66,3.28-55.37,4.27-83.1.74-20.81,1.03-41.62.37-62.39-.7-21.84-1.41-43.81-6.71-65.23-1.4-5.66-2.94-11.31-7.58-15.42-.85-.75-1.82-1.68-1.12-3,.57-1.07,1.73-.8,2.68-.8,20-.02,39.99,0,59.98-.02,2.9,0,3.62,1.45,2.53,3.82-4.93,10.72-4.7,22.31-5.51,33.66-2.96,41.38-2.17,82.84-1.85,124.27.18,23.1,1.08,46.2,1.97,69.29.74,19.08,1.58,38.17,3.04,57.21,1.71,22.32,3.19,44.66,5.59,66.94,2.38,22.1,4.76,44.19,9.27,65.97,2.22,10.7,4.21,21.54,10.05,31.11,1.43,2.34.97,3.8-2.11,3.68-1-.04-2,0-3,0-73.31,0-146.63,0-219.94,0-6.7,0-6.62.03-3.67-5.74,8.77-17.16,13.68-35.62,18.19-54.21,6.53-26.94,11.23-54.21,14.58-81.73,1.2-9.87,2.56-19.72,3.7-29.6.29-2.54.04-5.15.04-7.73-.16-.02-.32-.04-.47-.06Zm3.77-82.36c-2.36.81-2.78,2.61-3.7,3.88-6.96,9.58-14.54,18.63-23.24,26.65-21.22,19.55-44.88,35.91-68.77,51.93-21.55,14.44-35.75,34.16-41.92,59.24-4.71,19.15-4.61,38.25,4.77,56.35,8.12,15.67,24.02,23.6,39.2,19.25,10.82-3.1,18.8-10.43,25.6-19.05,17.25-21.87,27.57-47.29,36.84-73.16,11.16-31.16,19.25-63.18,25.87-95.57,1.98-9.67,3.54-19.43,5.35-29.51Zm-2.72,79.71c.77-1.12.7-2.17.04-3.51-.56,1.37-.64,2.42-.04,3.51Z"/>
      <path class="cls-1" d="m59.21,235.51c-.5,37.51,2.6,71.83,11.13,105.52,6.04,23.85,14.8,46.61,29.67,66.54,14.79,19.82,33.2,34.28,58.18,39.11,14.48,2.8,27.93.02,40.06-7.73,35.01-22.37,60.21-52.9,74.64-92.04,1.72-4.67,2.23-9.72,4.38-14.27,2.36-4.98,4.68-5.64,8.78-2.19,14.64,12.29,29.23,24.63,43.84,36.95,2.93,2.47,3.9,5.37.51,7.91-11.5,8.61-18.59,21.2-28.59,31.21-10.49,10.5-21.29,20.56-33.22,29.31-21.99,16.13-46.04,28.21-73.17,32.53-25.18,4.01-50.35,2.88-75.14-3.7-40.3-10.69-69.49-35.15-89.04-71.61-14-26.11-21.35-54.28-25.97-83.32C.3,278.4-.87,246.82.58,215.25c1.94-42.21,10.67-82.98,30.65-120.7C49.73,59.62,75.63,32,111.85,15.06,131.93,5.67,153.05.52,175.38.08c28.61-.56,56.81,1.51,84.02,11.1,21.38,7.53,40.18,18.99,52.59,38.47,14.16,22.24,17.56,46.39,9.33,71.66-6.6,20.23-27.25,27.76-43.92,23.86-12.56-2.93-18.81-12.47-23.05-23.57-3.76-9.86-5.03-20.17-5.26-30.77-.31-14.04-2.63-27.73-10.34-40-9.81-15.61-24.47-23.38-42.05-26.6-27.24-4.99-50.38,3.07-70.67,21.48-12.98,11.77-23.38,25.43-32.11,40.43-16,27.5-25.15,57.47-30.4,88.64-3.54,20.99-5.25,42.21-4.31,60.73Z"/>
      <path class="cls-1" d="m1336.2,352.1c-.52-16.95.09-32.42,1.14-47.85,1.38-20.35,3.25-40.65,6.47-60.83,3.2-20.06,7.58-39.77,14.42-58.91,4.8-13.44,11.2-26.03,20.96-36.54,9.27-9.98,20.78-15.65,34.57-16.89,14.66-1.31,28.55.5,40.96,8.88,16.57,11.19,24.27,27.68,25.25,46.96.95,18.71-.24,37.51.39,56.25.8,24.06,1.55,48.12,3.52,72.14,1.52,18.52,3.05,37.04,5.31,55.48,3.18,25.87,7.1,51.61,14.93,76.57,1.49,4.76,3.47,9.33,5.9,13.71,2.19,3.95,1.56,5.03-2.86,5.04-35.66.03-71.32,0-106.98.04-3.14,0-4.99-.3-3-4.11,12.67-24.32,18.26-50.87,23.95-77.34,5.89-27.42,9.65-55.21,12.79-83.05,1.58-14,2.49-28.1,3.51-42.17,1.19-16.44,2.05-32.86,1.56-49.32-.39-13.27-1.26-26.58-5.81-39.24-2.94-8.18-7.37-15.38-16.1-18.64-8.24-3.08-14.69.82-20.33,6.05-9.95,9.23-16.18,21.04-21.51,33.31-12.16,27.97-18.33,57.46-22.18,87.55-2.15,16.81-3.29,33.67-4.18,50.59-.72,13.66-.98,27.3-.47,40.9.69,18.4,1.2,36.83,3.56,55.14,1.02,7.89,1.6,15.85,2.21,23.79.34,4.5,2.24,8.29,4.63,11.94,2.12,3.23,1.53,4.62-2.64,4.61-35.99-.09-71.99-.04-107.98-.06-2.34,0-5.18.56-2.9-3.61,9.9-18.13,15.01-37.93,19.91-57.79,4.89-19.82,8.55-39.9,11.62-60.06,2.72-17.87,4.82-35.82,6.59-53.82,2.81-28.49,4.46-57.01,3.64-85.62-.42-14.41-1.54-28.87-5.1-42.92-1.75-6.91-4.05-13.79-9.81-18.73-.73-.63-1.83-1.32-1.45-2.39.51-1.43,1.99-.89,3.07-.89,20-.03,39.99,0,59.99-.04,2.89,0,4.35.99,2.9,3.86-5.37,10.58-5.39,22.22-6.26,33.54-1.99,25.91-1.69,51.92-.97,77.87.68,24.39,2.2,48.77,4.06,73.11.56,7.36-.29,14.96,2.75,23.48Z"/>
      <path class="cls-1" d="m523.99,287.2c-3.94,15.63-7.42,31.31-11.74,46.78-9.01,32.27-19.36,64.03-37.72,92.45-10.26,15.88-22.45,29.96-40.89,36.65-26.26,9.53-58.34-1.64-75.29-25.85-11.8-16.85-16.98-35.88-18.05-56.17-.98-18.57,1.49-36.5,10.59-53.09,8.51-15.53,21.1-27.29,35.14-37.63,18.79-13.85,39.42-24.77,59.37-36.76,25.6-15.38,50.03-32.29,70.81-53.99,1.95-2.04,3.67-4.3,5.6-6.36,5.53-5.93,5.9-7.4,1.51-14.76-8.93-15.01-22.93-22.79-39.49-26.19-23.19-4.76-39.58,6.95-50.26,26.33-5.74,10.4-9.66,21.51-12.41,33.05-2.61,10.98-6.44,21.28-15.08,29.22-9.13,8.38-23.27,11.5-32.74,6.89-11.08-5.4-17.3-19.62-14.66-33.23,4.89-25.24,20.65-42.32,41.92-54.88,23.17-13.68,48.59-19.21,75.35-19.43,16.85-.14,33.47.9,49.82,5.55,22.99,6.54,35.31,22.28,40.52,44.8,4.52,19.56,2.29,39.43,3.28,59.15,1.06,21.05,1.78,42.12,3.41,63.14,1,12.91,1.77,25.83,3.29,38.69,4.2,35.57,7.6,71.32,20.98,105.07.12.31.19.64.32.94q3.69,8.55-5.5,8.55c-33.99,0-67.98,0-101.98,0-5.56,0-5.46,0-2.86-5,9.28-17.86,14.33-37.16,18.97-56.57,6.33-26.47,10.86-53.27,14.22-80.28,1.54-12.32,3.17-24.63,3.56-37.06Zm3.56-82.11c-8.82,10.76-17.25,21.04-27.02,30.07-21.31,19.7-45.16,36.1-69.17,52.23-19.84,13.33-33.4,31.34-40.23,54.13-6.19,20.66-6.67,41.31,3.4,61.13,8.07,15.9,24.49,23.91,39.62,19.26,10.55-3.24,18.45-10.42,25.15-18.9,17.25-21.87,27.59-47.28,36.85-73.16,9.69-27.08,17.21-54.79,23.13-82.93,2.93-13.91,5.52-27.89,8.27-41.83Zm-2.54,76.03c-.68,1.2-1.09,2.23,0,3.44v-3.44Z"/>
      <path class="cls-1" d="m1697.51,287.06c-2.43,10.28-4.81,20.57-7.3,30.83-6.72,27.65-14.9,54.82-26.78,80.77-7.94,17.33-17.61,33.38-30.64,47.56-30.23,32.88-79.55,22.04-100.75-9.27-9.83-14.52-15.16-30.51-17.09-47.83-2.36-21.26-.62-41.84,9.76-61.01,8.51-15.72,21.29-27.54,35.48-37.97,18.68-13.73,39.14-24.59,58.95-36.49,25.74-15.47,50.31-32.48,71.19-54.31,2.06-2.16,3.69-4.83,5.99-6.65,4.62-3.67,4.31-7.68,1.91-12.33-7.55-14.66-20.4-22.63-35.51-26.93-23.76-6.77-42.85,2.22-55.2,25.02-5.66,10.45-9.69,21.5-12.43,33.05-2.65,11.15-6.52,21.61-15.37,29.61-9.03,8.17-23.03,11.22-32.34,6.73-11.31-5.45-17.45-19.7-14.71-33.63,4.97-25.25,20.83-42.22,42.12-54.72,23.36-13.71,48.95-19.16,75.89-19.28,16.52-.07,32.8,1,48.83,5.51,23,6.47,35.4,22.18,40.65,44.69,4.45,19.05,2.42,38.42,3.28,57.65.97,21.72,1.92,43.44,3.45,65.14,1.16,16.39,2.42,32.78,4.36,49.08,3.31,27.84,7.13,55.62,15.4,82.54,1.75,5.7,3.83,11.33,6.92,16.52,1.95,3.27,1.56,4.87-2.94,4.85-35.66-.14-71.32-.07-106.98-.09-5.16,0-5.09-.06-2.59-4.85,9.23-17.7,14.29-36.83,18.9-56.07,6.38-26.63,11.08-53.57,14.29-80.77,1.32-11.2,2.64-22.39,3.92-33.59.14-1.23.02-2.48.02-3.72-.22-.01-.45-.03-.67-.04Zm3.63-81.97c-8.57,10.83-16.91,20.99-26.58,29.92-21.31,19.7-45.13,36.13-69.15,52.25-21.55,14.46-35.7,34.23-41.82,59.31-4.67,19.14-4.57,38.26,4.91,56.33,8.19,15.61,24.21,23.5,39.3,19.05,10.62-3.13,18.55-10.3,25.24-18.76,17.36-21.99,27.76-47.55,37.07-73.6,11.7-32.73,20.03-66.4,26.83-100.45,1.59-7.98,2.81-16.04,4.2-24.06Zm-2.77,79.18c.71-1.21,1.08-2.24,0-3.43v3.43Z"/>
      <path class="cls-1" d="m623.15,354.33c-.32-24.24,2.15-46.04,3.96-67.89.9-10.92,1.55-21.86,2.12-32.81,1.46-27.7,3.65-55.37,4.29-83.12.09-3.78.56-7.6.79-11.41.19-3.1-.97-4.26-4.01-3.91-13.52,1.54-27.23,1.08-40.66,3.44-4.04.71-5.61-.13-5.48-4.31.2-6.16.18-12.33.16-18.49,0-2.67.74-4.04,3.75-4.75,12.94-3.06,25.1-8.03,34.86-17.38,9.29-8.9,14.5-20.22,17.26-32.61,4.32-19.4,4.83-39.17,5.12-58.94.04-3.03-1.28-5.45-2.47-8-1.28-2.75-.51-4,2.63-3.99,11.83.06,23.66.08,35.5-.01,3.11-.02,3.94,1.49,3.12,4.07-5.2,16.38-4.92,33.38-6.04,50.26-1.43,21.63-.55,43.27-1.06,64.9-.09,3.6.79,4.94,4.68,4.92,21.13-.13,42.23-.99,63.31-2.22,13.37-.78,13.34-1.18,13.34,11.95,0,1.67,0,3.33,0,5,0,9.2-.03,9.65-9.47,9.03-22.06-1.45-44.13-2.46-66.23-2.97-4.45-.1-5.72,1.07-5.59,5.52.36,11.65-.04,23.33.34,34.98.83,25.74,1.82,51.49,3.02,77.21.69,14.92,1.63,29.84,2.93,44.72,2.63,30.1,5.31,60.22,16.79,88.68,8.27,20.5,20.84,37.78,38.13,51.61,1.16.93,2.41,1.91,3.18,3.15,1.55,2.49,1.64,4.65-1.94,5.6-29.24,7.75-66.71,4.27-90.25-22.11-11.69-13.11-18.11-28.87-21.99-45.83-3.52-15.34-4.58-30.87-4.07-44.28Z"/>
      <path class="cls-1" d="m1181.82,466.12c-17.66,0-35.31.01-52.97,0-5.36,0-5.24,0-2.83-4.71,9.17-17.88,14.39-37.12,19.14-56.5,4.9-19.98,8.62-40.2,11.7-60.52,2.71-17.86,4.79-35.8,6.55-53.8,2.79-28.48,4.43-56.99,3.62-85.58-.41-14.41-1.58-28.85-5.14-42.89-1.75-6.91-4.14-13.74-9.85-18.71-.7-.61-1.8-1.27-1.26-2.42.52-1.12,1.75-.71,2.68-.71,20.15-.02,40.31,0,60.46-.04,3.14,0,3.96,1.34,2.64,4.03-5.38,10.92-5.35,22.9-6.21,34.54-1.92,26.07-1.69,52.23-.96,78.33.66,23.55,1.97,47.11,3.94,70.59,2.95,35.02,6.53,70,14.92,104.25,2.53,10.3,5.19,20.64,10.75,29.89,1.98,3.3.87,4.31-2.73,4.29-18.15-.09-36.31-.04-54.47-.04Z"/>
      <path class="cls-1" d="m1231.3,48.9c-.84,20.28-7.68,37.69-26.67,47.32-22.12,11.22-57.94,1.67-61.55-33.63-2-19.59,3.17-36.41,17.42-50.19,20.9-20.2,57.6-11.49,67.27,15.92,2.34,6.64,3.93,13.38,3.53,20.58Z"/>
      <path class="cls-1" d="m1512.71,549.04c0,15.19,0,28.84,0,42.5,0,17.66-.12,35.32.09,52.98.05,3.8-1.01,4.78-4.73,4.65-7.74-.26-7.75-.04-7.75-8.02,0-36.32-.03-72.64.07-108.97,0-2.01-1.51-5.56,1.53-5.83,3.59-.31,7.76-1.96,10.97,2.2,14.68,18.96,29.56,37.77,44.38,56.62,10.18,12.96,20.38,25.92,30.57,38.88.79,1,1.65,1.94,2.61,3.05,1.23-1.75.66-3.44.66-4.99.04-30.32.12-60.65-.07-90.97-.03-4.16.98-5.77,5.16-5.09,1.46.24,3,.12,4.49.02,1.88-.13,2.81.53,2.64,2.52-.1,1.16-.01,2.33-.01,3.5,0,36.82.04,73.64-.09,110.47,0,2.11,1.76,5.97-1.55,6.22-3.89.3-8.46,2.26-11.93-2.24-9.65-12.54-19.56-24.87-29.36-37.29-14.85-18.83-29.69-37.67-44.54-56.5-.68-.87-1.42-1.69-3.15-3.72Z"/>
      <path class="cls-1" d="m133.45,587.69c0-19.14.07-38.29-.06-57.43-.02-3.14.66-4.3,4.07-4.25,13.65.2,27.32-.33,40.95.18,22.07.81,39.81,9.49,49.33,30.49,3.34,7.38,5.34,15.23,5.86,23.7.73,11.64-.21,22.59-4.15,33.6-6.02,16.84-17.76,27.2-34.4,32.52-5.64,1.81-11.46,2.65-17.43,2.6-12.98-.11-25.98-.29-38.95.1-4.7.14-5.36-1.44-5.31-5.59.22-18.64.09-37.29.09-55.93Zm12.39-.33c0,15.65.07,31.31-.06,46.96-.02,2.99.75,4.05,3.88,3.97,9.65-.24,19.33.1,28.97-.28,18.48-.74,31.81-9.66,38.66-26.84,6.55-16.43,6.13-33.34-.84-49.53-5.1-11.84-14.2-19.54-27.24-22.73-13.01-3.18-26.08-1.23-39.1-2.03-3.65-.23-4.38,1.16-4.34,4.52.17,15.32.07,30.64.07,45.96Z"/>
      <path class="cls-1" d="m1292.18,631.61c-8.1,8.74-16.52,14.55-26.83,17.06-12.77,3.1-25.15,2.01-36.81-4.5-17.3-9.66-27.33-24.57-31.94-43.59-6.4-26.41,7.27-56.72,29.79-68.99,10.97-5.97,22.46-6.91,34.89-5.76,15.88,1.47,26.9,9.26,35.66,21.72,2.39,3.39,1.59,4.89-1.62,7.3-4.37,3.28-6.06,2.59-9.15-1.86-9.35-13.44-22.93-18.67-38.8-15.8-23.03,4.17-35.09,18.14-39.27,42.1-2.53,14.49,1.11,27.37,8.92,38.98,16.18,24.05,44.45,27.58,67.21,8.85,9.85-8.11,7.71-17.69,7.87-27.49.04-2.41-2.21-1.47-3.47-1.49-7-.09-14.01-.28-20.99.05-3.69.17-3.73-1.76-3.41-4.24.28-2.23-1.59-5.56,3.26-5.46,10.49.22,20.99.13,31.49.04,2.77-.03,3.75.9,3.74,3.75-.08,17.83-.06,35.65.06,53.48.04,5.64-4.06,2.79-6.4,3.26-2.36.48-4.58.43-4.26-3.33.36-4.24.08-8.54.08-14.06Z"/>
      <path class="cls-1" d="m430.42,587.71c0-19.15.06-38.3-.06-57.44-.02-3.13.65-4.27,4.07-4.25,24.31.15,48.63.23,72.94-.04,4.83-.05,3.94,2.62,3.88,5.31-.06,2.74,1.21,5.85-4,5.77-19.81-.29-39.63-.03-59.45-.19-3.69-.03-5.21.63-5.1,4.81.32,11.48.31,22.98,0,34.46-.11,4.17,1.4,4.9,5.14,4.86,16.65-.18,33.31.12,49.95-.21,4.54-.09,4.52,1.93,4.54,5.23.02,3.38-.13,5.28-4.6,5.2-16.48-.33-32.97.08-49.45-.26-4.82-.1-5.67,1.51-5.57,5.83.27,11.82.42,23.65-.06,35.46-.22,5.34,1.6,6.16,6.38,6.1,19.81-.27,39.63.07,59.45-.24,4.72-.07,4.91,1.9,4.87,5.53-.04,3.49.08,5.63-4.75,5.57-24.48-.29-48.96-.24-73.44-.03-4.1.04-4.88-1.25-4.84-5.02.18-18.81.08-37.63.08-56.44Z"/>
      <path class="cls-1" d="m704.76,622.35c7.84,7.27,16.79,12.22,26.93,14.8,12.27,3.12,24.54,3.41,36.41-1.63,7.02-2.98,10.92-8.52,11.24-16.28.33-8-2.84-14.12-10-17.95-9.22-4.93-19.54-6.36-29.45-9.05-5.56-1.51-11.02-3.24-16.43-5.16-10.19-3.62-18.63-9.35-20.1-20.97-1.85-14.66,2.57-27.05,16.06-34.61,10.79-6.05,22.41-7.23,34.81-5.7,9.75,1.2,18.71,3.48,26.73,9.09,1.94,1.36,5.47,2.46,4.88,4.94-.72,3.05-2.84,5.94-5.17,8.38-1.32,1.38-1.41-.19-1.99-.73-12.02-11.15-36.08-15.12-50.76-8.15-8.19,3.89-12.53,10.78-12.56,19.7-.02,8.57,5.22,13.87,12.91,16.91,11.71,4.63,24.14,6.71,36.2,10.11,5.56,1.57,10.91,3.65,15.89,6.67,12.19,7.37,13.79,22.34,10.61,33.98-3.29,12.05-12.34,18.43-23.53,21.11-22.74,5.43-44.33,2.48-63.91-11.31-3.95-2.78-5.67-5.21-1.9-9.31,1.21-1.32,1.99-3.05,3.13-4.85Z"/>
      <path class="cls-1" d="m986.37,587.4c0-18.8.1-37.59-.08-56.39-.04-3.77.74-5.66,4.84-4.94.97.17,2.01.16,2.99,0,3.68-.6,4.78.74,4.74,4.56-.2,20.13-.09,40.25-.09,60.38,0,17.8-.1,35.6.08,53.4.04,3.58-.69,5.39-4.6,4.69-.97-.17-2.01-.15-2.99,0-3.84.6-5.03-.79-4.98-4.81.23-18.96.1-37.93.1-56.89Z"/>
      <path class="cls-1" d="m925.64,284.4c-.59-1.1-.52-2.15.04-3.51.66,1.35.72,2.39-.04,3.51Z"/>
    </g>
  </g>
</svg>